<svg xmlns="http://www.w3.org/2000/svg" width="1200" height="630" viewBox="0 0 1200 630"><defs><linearGradient id="bg" x1="0" y1="0" x2="1" y2="1"><stop offset="0" stop-color="#f5f3ff"/><stop offset=".55" stop-color="#fdf4ff"/><stop offset="1" stop-color="#fff7ed"/></linearGradient><linearGradient id="g" x1="0" y1="0" x2="1" y2="1"><stop offset="0" stop-color="#22c55e"/><stop offset="1" stop-color="#16a34a"/></linearGradient><linearGradient id="t" x1="0" y1="0" x2="1" y2="0"><stop offset="0" stop-color="#7c3aed"/><stop offset=".5" stop-color="#d946ef"/><stop offset="1" stop-color="#f97316"/></linearGradient></defs><rect width="1200" height="630" fill="url(#bg)"/><circle cx="1110" cy="80" r="220" fill="#ede9fe" opacity=".7"/><circle cx="80" cy="600" r="180" fill="#ffedd5" opacity=".7"/><g transform="translate(80 92)"><rect width="88" height="88" rx="22" fill="url(#g)"/><g transform="translate(20 20) scale(2)" fill="none" stroke="#fff" stroke-width="2.2" stroke-linecap="round" stroke-linejoin="round"><path d="M11 20A7 7 0 0 1 9.8 6.1C15.5 5 17 4.48 19 2c1 2 2 4.18 2 8 0 5.5-4.78 10-10 10Z"/><path d="M2 21c0-3 1.85-5.36 5.08-6C9.5 14.52 12 13 13 12"/></g></g><g font-family="Inter,Arial,Helvetica,sans-serif"><text x="190" y="152" font-size="46" font-weight="800" fill="#0f172a">MyFoodLicense<tspan font-size="26" fill="#7c3aed">.com</tspan></text><text x="80" y="320" font-size="66" font-weight="800" fill="#0f172a">FSSAI registration &amp; licence,</text><text x="80" y="400" font-size="66" font-weight="800" fill="url(#t)">done with experts.</text><text x="80" y="480" font-size="30" fill="#475569">Basic registration · State and Central licence · Labels · Claims · Imports</text><text x="80" y="560" font-size="22" fill="#94a3b8">Independent consultancy · not affiliated with FSSAI</text></g></svg>
